<?xml version="1.0" encoding="UTF-8"?> <!-- Generator: Adobe Illustrator 25.0.1, SVG Export Plug-In . SVG Version: 6.00 Build 0) --> <svg xmlns="http://www.w3.org/2000/svg" xmlns:xlink="http://www.w3.org/1999/xlink" id="katman_1" x="0px" y="0px" viewBox="0 0 143.9 97.3" style="enable-background:new 0 0 143.9 97.3;" xml:space="preserve"> <path d="M95.4,41.2c8.2-3.6,13.6-9.1,13.9-15.1c0,0-2.2-1.7-9.2-4.3C93.9,19.5,89.2,19,89.2,19l0,13.5c0,2-0.8,4.1-2.3,5.9 c-4.7-1.1-9.8-1.8-15.2-1.8h0c-5.4,0-10.6,0.6-15.3,1.8c-1.5-1.8-2.3-3.9-2.3-5.9l0-13.5c0,0-4.7,0.5-10.9,2.8 c-7,2.6-9.2,4.3-9.2,4.3c0.3,6,5.7,11.5,13.9,15.1c-8.3,3.6-13.6,9.1-13.9,15.1c0,0,2.2,1.7,9.2,4.3c6.2,2.3,10.9,2.8,10.9,2.8 l0-13.5c0-2,0.8-4.1,2.3-5.9c4.7,1.1,9.8,1.8,15.2,1.8h0c5.4,0,10.6-0.6,15.3-1.8c1.5,1.8,2.3,3.9,2.3,5.9l0,13.5 c0,0,4.7-0.5,10.9-2.8c7-2.6,9.2-4.3,9.2-4.3C109,50.3,103.6,44.8,95.4,41.2L95.4,41.2z M71.6,44.2L71.6,44.2l-0.2,0 c-4.9,0-8.9-1.2-11.8-3c2.9-1.8,6.9-3,11.8-3l0.2,0h0l0.2,0c4.9,0,8.9,1.2,11.8,3c-2.9,1.8-6.9,3-11.8,3 M23.2,78.3 c-2.4,0-2.4-1.8-2.4-2.5v-3.3c0-0.2,0-0.5,0.4-0.5h1.2c0.4,0,0.4,0.3,0.4,0.5v3.3c0,0.2,0,0.9,0.9,0.9h2.1c0.8,0,0.9-0.6,0.9-0.9 v-3.3c0-0.2,0-0.5,0.4-0.5h1.2c0.4,0,0.4,0.3,0.4,0.5v3.3c0,0.7,0,2.5-2.4,2.5 M34.5,77.9c-0.8-1.1-2-2.5-3.2-4v4 c0,0.2,0,0.4-0.4,0.4h-1.1c-0.4,0-0.4-0.3-0.4-0.4v-5.3c0-0.2,0-0.5,0.4-0.5H32c0.6,0,1.5,1.3,2.1,2.1c0.5,0.6,1.3,1.6,1.9,2.3v-4 c0-0.2,0-0.5,0.4-0.5h1.2c0.4,0,0.4,0.3,0.4,0.5v5.8h-2.3C35.2,78.3,35,78.3,34.5,77.9 M43.9,76.7c1,0,0.9-1,0.9-1.4 c0-1.5-0.4-1.5-1.1-1.5h-3.1v2.9C40.6,76.7,43.9,76.7,43.9,76.7z M38.7,78.3v-6.2h5.5c0.3,0,2.6,0,2.6,2.3c0,2.4,0.3,3.9-2.5,3.9h-3 L40.7,77v1.3 M49,72.1h5.1c0.4,0,0.4,0.3,0.4,0.8c0,0.5,0.1,0.8-0.4,0.8h-4c-0.1,0-0.5-0.1-0.5,0.3s-0.1,0.5,0.3,0.5h3.5 c0,0,0.5,1,0.6,1.1c0.1,0.1,0.1,0.3-0.2,0.3h-3.7l-0.6-1.1v1.6c0,0.4,0.3,0.3,0.4,0.3h4.2c0.4,0,0.4,0.3,0.4,0.8 c0,0.5,0,0.8-0.4,0.8h-5.3c-0.4,0-1.3-0.1-1.3-1.5v-3.4C47.6,73,47.8,72.1,49,72.1 M60.2,73.7h-2.5c-0.4,0-0.4,0.1-0.4,0.3v1.1h2.5 c1.2,0,1.2-0.3,1.2-0.6C61.1,73.8,61.1,73.7,60.2,73.7z M55.8,72.1h5.6c0.7,0,1.8,0,1.8,2c0,1.3-0.3,1.4-0.9,1.8 c1,0.2,0.9,1.5,0.9,2.1c0,0.3-0.1,0.3-0.2,0.3h-1.6c-0.3,0-0.3-0.5-0.3-0.8c0-0.8-0.4-0.7-0.6-0.7h-2.4c-0.2-0.4-0.7-1.3-0.7-1.3V78 c0,0.2-0.2,0.3-0.3,0.3h-1.6c0.1,0-0.2,0-0.2-0.2v-5.5C55.3,72.2,55.6,72.1,55.8,72.1 M72.1,73.8l-1,1.9l0.1,0.1h1.9l0.1-0.1 C73.1,75.6,72.3,74,72.1,73.8L72.1,73.8L72.1,73.8z M72.8,72.1c0.4,0,0.8,0.2,1.2,1c0.3,0.6,2.3,4.2,2.7,5v0.2h-2.1L74,77.2h-2.6 c0,0-0.4-1-0.6-1.3c-0.2,0.3-1,1.9-1.3,2.3h-2.1v-0.1c0.4-0.8,3.4-6.1,3.4-6.1 M82.2,73.7h-2.5c-0.4,0-0.4,0.1-0.4,0.3v1.1h2.5 c1.2,0,1.2-0.3,1.2-0.6C83.1,73.8,83.1,73.7,82.2,73.7z M77.8,72.1h5.6c0.7,0,1.8,0,1.8,2c0,1.3-0.3,1.4-0.9,1.8 c1,0.2,0.9,1.5,0.9,2.1c0,0.3-0.1,0.3-0.2,0.3h-1.6c-0.3,0-0.3-0.5-0.3-0.8c0-0.8-0.4-0.7-0.6-0.7h-2.4c-0.2-0.4-0.7-1.3-0.7-1.3V78 c0,0.2-0.2,0.3-0.3,0.3h-1.6c0.1,0-0.2,0-0.2-0.2v-5.5C77.3,72.2,77.6,72.1,77.8,72.1 M90,78.3c-0.4-0.8-1.6-2.9-2.3-4.3v3.9 c0,0.2,0,0.4-0.4,0.4h-1.1c-0.4,0-0.4-0.3-0.4-0.4v-5.3c0-0.2,0-0.5,0.4-0.5h1.9c0.3,0,0.7-0.1,1.2,0.9c0.3,0.7,1.1,2.3,1.6,3.1 c0.5-0.8,1.3-2.4,1.6-3.1c0.5-0.9,0.9-0.9,1.2-0.9h1.9c0.4,0,0.4,0.3,0.4,0.5v5.3c0,0.2,0.1,0.4-0.4,0.4h-1.1 c-0.4,0-0.4-0.3-0.4-0.4V74c-0.8,1.4-1.9,3.5-2.4,4.3 M102.2,76.7c0.9,0,0.9-1,0.9-1.6c0-0.6,0.1-1.5-1.1-1.5H100 c-1.2,0-1.1,0.9-1.1,1.5c0,0.6-0.1,1.6,0.9,1.6L102.2,76.7L102.2,76.7z M98.5,78.3c-1.8,0-1.8-2-1.8-3.3c0-1.2-0.1-3,2.2-3h4.1 c2.3,0,2.2,1.9,2.2,3c0,1.3,0.1,3.3-1.8,3.3 M108.3,78.3c-2.4,0-2.4-1.8-2.4-2.5v-3.3c0-0.2,0-0.5,0.4-0.5h1.2 c0.4,0,0.4,0.3,0.4,0.5v3.3c0,0.2,0,0.9,0.9,0.9h2.1c0.8,0,0.9-0.6,0.9-0.9v-3.3c0-0.2,0-0.5,0.4-0.5h1.2c0.4,0,0.4,0.3,0.4,0.5v3.3 c0,0.7,0,2.5-2.4,2.5 M119.4,73.7H117c-0.4,0-0.4,0.1-0.4,0.3v1.1h2.5c1.2,0,1.2-0.3,1.2-0.6C120.4,73.8,120.3,73.7,119.4,73.7z M115,72.1h5.6c0.7,0,1.8,0,1.8,2c0,1.3-0.3,1.4-0.9,1.8c1,0.2,0.9,1.5,0.9,2.1c0,0.3-0.1,0.3-0.2,0.3h-1.6c-0.3,0-0.3-0.5-0.3-0.8 c0-0.8-0.4-0.7-0.6-0.7h-2.4c-0.2-0.4-0.7-1.3-0.7-1.3V78c0,0.2-0.2,0.3-0.3,0.3h-1.6c0.1,0-0.2,0-0.2-0.2v-5.5 C114.5,72.2,114.8,72.1,115,72.1"></path> </svg> 