<svg width="198" height="59" viewBox="0 0 198 59" fill="none" xmlns="http://www.w3.org/2000/svg">
<g id="Download_on_the_App_Store_Badge_USUK_135x40.svg" clip-path="url(#clip0_1_1049)">
<g id="Group">
<path id="Vector" d="M190.491 58.91H7.40153C3.59726 58.91 0.500732 55.8048 0.500732 52.0034V7.43645C0.500732 3.63365 3.59726 0.540039 7.40153 0.540039H190.491C194.294 0.540039 197.499 3.63365 197.499 7.43645V52.0034C197.499 55.8048 194.294 58.91 190.491 58.91Z" fill="#A6A6A6"/>
<path id="Vector_2" d="M196.087 52.005C196.087 55.0927 193.586 57.5939 190.492 57.5939H7.40162C4.30947 57.5939 1.79956 55.0927 1.79956 52.005V7.43509C1.79956 4.34878 4.30947 1.83887 7.40162 1.83887H190.491C193.586 1.83887 196.086 4.34878 196.086 7.43509L196.087 52.005Z" fill="black"/>
<g id="Group_2">
<g id="Group_3">
<path id="Vector_3" d="M44.4649 29.4099C44.4226 24.7067 48.3159 22.4186 48.4939 22.3121C46.289 19.0973 42.8714 18.6581 41.6705 18.6231C38.8001 18.321 36.0159 20.3406 34.5537 20.3406C33.0624 20.3406 30.8107 18.6523 28.384 18.7019C25.2612 18.75 22.3398 20.558 20.7375 23.3656C17.4309 29.0903 19.897 37.5029 23.065 42.1301C24.6498 44.3964 26.5016 46.9267 28.9254 46.8377C31.2967 46.7399 32.1824 45.3259 35.044 45.3259C37.8793 45.3259 38.7111 46.8377 41.1831 46.7808C43.728 46.7399 45.3303 44.5043 46.8596 42.2177C48.6909 39.6202 49.4264 37.0622 49.4556 36.9308C49.3957 36.9104 44.5131 35.0469 44.4649 29.4099Z" fill="white"/>
<path id="Vector_4" d="M39.7954 15.5792C41.0708 13.9842 41.9434 11.8143 41.7012 9.6123C39.8552 9.69402 37.5467 10.8891 36.2173 12.4491C35.0412 13.8237 33.9905 16.0768 34.2619 18.1956C36.3355 18.3503 38.4646 17.1493 39.7954 15.5792Z" fill="white"/>
</g>
</g>
<g id="Group_4">
<path id="Vector_5" d="M78.7821 46.5125H75.4682L73.6529 40.8083H67.3431L65.6139 46.5125H62.3875L68.6389 27.0928H72.5001L78.7821 46.5125ZM73.1056 38.4151L71.464 33.3442C71.2903 32.8262 70.9649 31.6062 70.4848 29.6859H70.4265C70.2353 30.5118 69.9274 31.7317 69.5042 33.3442L67.8917 38.4151H73.1056Z" fill="white"/>
<path id="Vector_6" d="M94.8587 39.3387C94.8587 41.7202 94.2152 43.6026 92.9281 44.9845C91.7753 46.2147 90.3438 46.829 88.635 46.829C86.7905 46.829 85.4655 46.1665 84.6586 44.8415H84.6002V52.218H81.4891V37.1192C81.4891 35.622 81.4497 34.0854 81.3738 32.5094H84.1099L84.2835 34.7289H84.3419C85.3794 33.0566 86.954 32.2219 89.0669 32.2219C90.7188 32.2219 92.0978 32.8742 93.201 34.1802C94.3071 35.4877 94.8587 37.2067 94.8587 39.3387ZM91.6892 39.4525C91.6892 38.0896 91.3828 36.9659 90.767 36.0816C90.0943 35.1594 89.191 34.6983 88.0586 34.6983C87.291 34.6983 86.5935 34.9551 85.9704 35.4615C85.3459 35.9722 84.9373 36.6391 84.7461 37.465C84.6498 37.8503 84.6016 38.1654 84.6016 38.4135V40.7483C84.6016 41.7669 84.9139 42.6264 85.5385 43.3283C86.163 44.0302 86.9744 44.3804 87.9725 44.3804C89.1443 44.3804 90.0563 43.928 90.7086 43.0262C91.3623 42.1229 91.6892 40.9322 91.6892 39.4525Z" fill="white"/>
<path id="Vector_7" d="M110.964 39.3387C110.964 41.7202 110.321 43.6026 109.032 44.9845C107.881 46.2147 106.45 46.829 104.741 46.829C102.896 46.829 101.571 46.1665 100.766 44.8415H100.707V52.218H97.5962V37.1192C97.5962 35.622 97.5568 34.0854 97.481 32.5094H100.217L100.391 34.7289H100.449C101.485 33.0566 103.06 32.2219 105.174 32.2219C106.825 32.2219 108.204 32.8742 109.31 34.1802C110.411 35.4877 110.964 37.2067 110.964 39.3387ZM107.795 39.4525C107.795 38.0896 107.487 36.9659 106.871 36.0816C106.199 35.1594 105.298 34.6983 104.164 34.6983C103.395 34.6983 102.699 34.9551 102.075 35.4615C101.45 35.9722 101.043 36.6391 100.852 37.465C100.757 37.8503 100.707 38.1654 100.707 38.4135V40.7483C100.707 41.7669 101.02 42.6264 101.641 43.3283C102.266 44.0287 103.077 44.3804 104.078 44.3804C105.25 44.3804 106.162 43.928 106.814 43.0262C107.468 42.1229 107.795 40.9322 107.795 39.4525Z" fill="white"/>
<path id="Vector_8" d="M128.972 41.0664C128.972 42.7183 128.398 44.0623 127.247 45.0998C125.982 46.2336 124.22 46.7998 121.957 46.7998C119.867 46.7998 118.192 46.3971 116.924 45.5901L117.645 42.997C119.011 43.823 120.509 44.2374 122.142 44.2374C123.314 44.2374 124.226 43.9718 124.881 43.4436C125.534 42.9153 125.859 42.2061 125.859 41.3218C125.859 40.5338 125.591 39.8699 125.052 39.3314C124.517 38.7929 123.622 38.2924 122.373 37.8298C118.973 36.5617 117.274 34.7041 117.274 32.2613C117.274 30.6649 117.87 29.356 119.062 28.3374C120.25 27.3174 121.834 26.8081 123.816 26.8081C125.583 26.8081 127.051 27.116 128.223 27.7304L127.445 30.2665C126.351 29.6712 125.113 29.3735 123.729 29.3735C122.634 29.3735 121.779 29.6434 121.166 30.1804C120.648 30.6605 120.388 31.2457 120.388 31.9388C120.388 32.7064 120.685 33.3412 121.28 33.8402C121.798 34.3014 122.739 34.8004 124.105 35.3389C125.776 36.0116 127.003 36.7981 127.793 37.6999C128.579 38.5988 128.972 39.7239 128.972 41.0664Z" fill="white"/>
<path id="Vector_9" d="M139.258 34.8441H135.829V41.6428C135.829 43.372 136.433 44.2359 137.644 44.2359C138.2 44.2359 138.661 44.1877 139.026 44.0914L139.112 46.4539C138.499 46.683 137.692 46.7983 136.692 46.7983C135.464 46.7983 134.504 46.4233 133.81 45.6747C133.12 44.9246 132.773 43.6668 132.773 41.8996V34.8412H130.73V32.5064H132.773V29.9425L135.829 29.0203V32.5064H139.258V34.8441Z" fill="white"/>
<path id="Vector_10" d="M154.73 39.3956C154.73 41.548 154.114 43.3151 152.886 44.6971C151.597 46.1198 149.887 46.829 147.755 46.829C145.7 46.829 144.064 46.1476 142.845 44.7846C141.625 43.4217 141.015 41.7012 141.015 39.6276C141.015 37.4577 141.642 35.6804 142.901 34.2984C144.158 32.9151 145.854 32.2234 147.985 32.2234C150.04 32.2234 151.693 32.9049 152.941 34.2693C154.135 35.5928 154.73 37.3016 154.73 39.3956ZM151.502 39.4963C151.502 38.2049 151.226 37.0973 150.668 36.1736C150.015 35.0558 149.083 34.4984 147.875 34.4984C146.624 34.4984 145.674 35.0573 145.022 36.1736C144.463 37.0987 144.187 38.2238 144.187 39.5547C144.187 40.8461 144.463 41.9537 145.022 42.8759C145.694 43.9937 146.634 44.5511 147.847 44.5511C149.035 44.5511 149.967 43.982 150.64 42.8467C151.213 41.9055 151.502 40.7863 151.502 39.4963Z" fill="white"/>
<path id="Vector_11" d="M164.843 35.2455C164.535 35.1886 164.207 35.1594 163.862 35.1594C162.768 35.1594 161.921 35.5724 161.326 36.3998C160.808 37.1294 160.548 38.0516 160.548 39.165V46.5124H157.439L157.468 36.9192C157.468 35.3053 157.428 33.8359 157.351 32.5109H160.061L160.175 35.19H160.261C160.589 34.2693 161.107 33.528 161.816 32.972C162.51 32.4715 163.258 32.2219 164.065 32.2219C164.353 32.2219 164.612 32.2424 164.843 32.2788V35.2455Z" fill="white"/>
<path id="Vector_12" d="M178.757 38.8483C178.757 39.4057 178.72 39.8756 178.643 40.2594H169.31C169.346 41.6427 169.797 42.7007 170.664 43.4303C171.45 44.0826 172.467 44.4095 173.716 44.4095C175.098 44.4095 176.359 44.1891 177.493 43.747L177.98 45.9067C176.655 46.4845 175.091 46.772 173.286 46.772C171.115 46.772 169.41 46.1329 168.17 44.856C166.932 43.5792 166.312 41.8645 166.312 39.7136C166.312 37.6021 166.889 35.8437 168.043 34.4413C169.251 32.9442 170.884 32.1956 172.939 32.1956C174.957 32.1956 176.485 32.9442 177.522 34.4413C178.344 35.6306 178.757 37.1016 178.757 38.8483ZM175.79 38.0413C175.811 37.1191 175.608 36.3223 175.186 35.6496C174.647 34.7843 173.82 34.3523 172.707 34.3523C171.69 34.3523 170.862 34.7741 170.23 35.6204C169.712 36.2931 169.404 37.1001 169.31 38.0399L175.79 38.0413Z" fill="white"/>
</g>
<g id="Group_5">
<g id="Group_6">
<path id="Vector_13" d="M72.0769 15.1456C72.0769 16.8632 71.5618 18.1561 70.533 19.0243C69.5801 19.8255 68.2259 20.2267 66.4719 20.2267C65.6022 20.2267 64.858 20.1888 64.2349 20.1129V10.7285C65.0477 10.5972 65.9232 10.53 66.8688 10.53C68.5397 10.53 69.799 10.8934 70.6483 11.6201C71.5997 12.4416 72.0769 13.6163 72.0769 15.1456ZM70.4644 15.188C70.4644 14.0745 70.1696 13.2209 69.5801 12.6255C68.9906 12.0316 68.1296 11.7339 66.9958 11.7339C66.5142 11.7339 66.1042 11.766 65.7642 11.8331V18.9674C65.9524 18.9966 66.2968 19.0097 66.7973 19.0097C67.9676 19.0097 68.8709 18.6843 69.5071 18.0335C70.1434 17.3827 70.4644 16.4342 70.4644 15.188Z" fill="white"/>
<path id="Vector_14" d="M80.6265 16.6459C80.6265 17.7039 80.3245 18.5707 79.7203 19.2507C79.087 19.9497 78.2479 20.2984 77.2002 20.2984C76.1904 20.2984 75.3864 19.9643 74.7866 19.293C74.1883 18.6232 73.8892 17.7783 73.8892 16.7597C73.8892 15.6945 74.1971 14.8204 74.8158 14.1418C75.4345 13.4633 76.2663 13.1233 77.314 13.1233C78.3238 13.1233 79.1352 13.4575 79.7495 14.1273C80.3332 14.7781 80.6265 15.6186 80.6265 16.6459ZM79.0403 16.6955C79.0403 16.0608 78.9031 15.5165 78.6303 15.0626C78.3092 14.514 77.8525 14.2396 77.2586 14.2396C76.6442 14.2396 76.1773 14.514 75.8562 15.0626C75.5819 15.5165 75.4462 16.0695 75.4462 16.7233C75.4462 17.358 75.5833 17.9023 75.8562 18.3562C76.1875 18.9048 76.6486 19.1792 77.244 19.1792C77.8277 19.1792 78.2859 18.9005 78.6157 18.3416C78.8988 17.879 79.0403 17.3303 79.0403 16.6955Z" fill="white"/>
<path id="Vector_15" d="M92.0905 13.2632L89.9381 20.1421H88.5372L87.6456 17.155C87.4194 16.4093 87.2355 15.668 87.0925 14.9326H87.0648C86.932 15.6885 86.7481 16.4283 86.5117 17.155L85.5647 20.1421H84.1478L82.1238 13.2632H83.6954L84.4732 16.5334C84.6614 17.3068 84.8161 18.0437 84.9401 18.7412H84.9679C85.0817 18.1663 85.2699 17.4337 85.5355 16.548L86.5117 13.2646H87.7579L88.6933 16.4779C88.9195 17.2615 89.1034 18.016 89.2449 18.7427H89.2872C89.3908 18.0349 89.547 17.2805 89.7542 16.4779L90.5889 13.2646H92.0905V13.2632Z" fill="white"/>
<path id="Vector_16" d="M100.019 20.1423H98.4893V16.2023C98.4893 14.9882 98.0282 14.3811 97.103 14.3811C96.6492 14.3811 96.283 14.5475 95.9984 14.8817C95.7168 15.2158 95.5738 15.6098 95.5738 16.0607V20.1408H94.0445V15.229C94.0445 14.6248 94.0255 13.9696 93.989 13.2604H95.333L95.4045 14.3359H95.4468C95.6248 14.0017 95.8904 13.7259 96.2392 13.5056C96.6536 13.2488 97.1176 13.1189 97.6255 13.1189C98.2675 13.1189 98.8016 13.3261 99.2263 13.742C99.7545 14.2513 100.019 15.0115 100.019 16.0213V20.1423Z" fill="white"/>
<path id="Vector_17" d="M104.236 20.1422H102.708V10.1069H104.236V20.1422Z" fill="white"/>
<path id="Vector_18" d="M113.239 16.6459C113.239 17.7039 112.937 18.5707 112.333 19.2507C111.7 19.9497 110.859 20.2984 109.813 20.2984C108.802 20.2984 107.998 19.9643 107.399 19.293C106.801 18.6232 106.502 17.7783 106.502 16.7597C106.502 15.6945 106.81 14.8204 107.429 14.1418C108.047 13.4633 108.879 13.1233 109.925 13.1233C110.937 13.1233 111.746 13.4575 112.362 14.1273C112.946 14.7781 113.239 15.6186 113.239 16.6459ZM111.652 16.6955C111.652 16.0608 111.514 15.5165 111.242 15.0626C110.922 14.514 110.464 14.2396 109.871 14.2396C109.256 14.2396 108.789 14.514 108.469 15.0626C108.195 15.5165 108.059 16.0695 108.059 16.7233C108.059 17.358 108.196 17.9023 108.469 18.3562C108.8 18.9048 109.261 19.1792 109.857 19.1792C110.44 19.1792 110.897 18.9005 111.227 18.3416C111.512 17.879 111.652 17.3303 111.652 16.6955Z" fill="white"/>
<path id="Vector_19" d="M120.641 20.1423H119.268L119.154 19.3499H119.111C118.642 19.9818 117.972 20.2984 117.102 20.2984C116.453 20.2984 115.927 20.0898 115.532 19.6753C115.173 19.2988 114.993 18.8304 114.993 18.2744C114.993 17.4339 115.344 16.7933 116.048 16.3497C116.752 15.9061 117.741 15.6887 119.015 15.6989V15.5705C119.015 14.6643 118.539 14.2119 117.586 14.2119C116.908 14.2119 116.31 14.3826 115.793 14.7212L115.482 13.7172C116.121 13.3217 116.911 13.1233 117.842 13.1233C119.64 13.1233 120.541 14.0718 120.541 15.9688V18.5021C120.541 19.1894 120.575 19.7366 120.641 20.1423ZM119.053 17.7783V16.7174C117.366 16.6882 116.523 17.1508 116.523 18.1037C116.523 18.4627 116.619 18.7312 116.816 18.9107C117.013 19.0902 117.264 19.1792 117.563 19.1792C117.899 19.1792 118.213 19.0727 118.499 18.8611C118.786 18.648 118.963 18.378 119.028 18.0468C119.044 17.9724 119.053 17.8819 119.053 17.7783Z" fill="white"/>
<path id="Vector_20" d="M129.331 20.1422H127.973L127.902 19.0375H127.86C127.426 19.8781 126.688 20.2983 125.65 20.2983C124.821 20.2983 124.131 19.9729 123.584 19.3221C123.037 18.6713 122.764 17.8264 122.764 16.7888C122.764 15.6754 123.06 14.7736 123.656 14.0848C124.232 13.4428 124.938 13.1217 125.779 13.1217C126.702 13.1217 127.349 13.4326 127.717 14.0557H127.746V10.1069H129.277V18.2889C129.277 18.9587 129.294 19.576 129.331 20.1422ZM127.746 17.2412V16.0942C127.746 15.8958 127.731 15.7353 127.703 15.6127C127.617 15.245 127.432 14.9356 127.15 14.6861C126.866 14.4365 126.523 14.311 126.127 14.311C125.557 14.311 125.11 14.5372 124.782 14.991C124.457 15.4449 124.292 16.0242 124.292 16.7319C124.292 17.4119 124.448 17.9635 124.762 18.3882C125.093 18.8405 125.539 19.0667 126.098 19.0667C126.6 19.0667 127.002 18.8785 127.307 18.5005C127.601 18.1518 127.746 17.7315 127.746 17.2412Z" fill="white"/>
<path id="Vector_21" d="M142.41 16.6459C142.41 17.7039 142.108 18.5707 141.504 19.2507C140.87 19.9497 140.033 20.2984 138.983 20.2984C137.975 20.2984 137.171 19.9643 136.57 19.293C135.972 18.6232 135.672 17.7783 135.672 16.7597C135.672 15.6945 135.98 14.8204 136.599 14.1418C137.218 13.4633 138.049 13.1233 139.099 13.1233C140.107 13.1233 140.92 13.4575 141.533 14.1273C142.116 14.7781 142.41 15.6186 142.41 16.6459ZM140.825 16.6955C140.825 16.0608 140.688 15.5165 140.415 15.0626C140.092 14.514 139.637 14.2396 139.042 14.2396C138.429 14.2396 137.962 14.514 137.639 15.0626C137.365 15.5165 137.229 16.0695 137.229 16.7233C137.229 17.358 137.367 17.9023 137.639 18.3562C137.971 18.9048 138.432 19.1792 139.027 19.1792C139.611 19.1792 140.071 18.9005 140.4 18.3416C140.682 17.879 140.825 17.3303 140.825 16.6955Z" fill="white"/>
<path id="Vector_22" d="M150.633 20.1423H149.105V16.2023C149.105 14.9882 148.644 14.3811 147.717 14.3811C147.263 14.3811 146.897 14.5475 146.614 14.8817C146.331 15.2158 146.189 15.6098 146.189 16.0607V20.1408H144.658V15.229C144.658 14.6248 144.641 13.9696 144.604 13.2604H145.947L146.019 14.3359H146.061C146.24 14.0017 146.506 13.7259 146.853 13.5056C147.269 13.2488 147.732 13.1189 148.241 13.1189C148.882 13.1189 149.416 13.3261 149.84 13.742C150.37 14.2513 150.633 15.0115 150.633 16.0213V20.1423Z" fill="white"/>
<path id="Vector_23" d="M160.925 14.4087H159.241V17.7504C159.241 18.5997 159.54 19.0243 160.132 19.0243C160.407 19.0243 160.634 19.001 160.814 18.9528L160.853 20.1129C160.551 20.2268 160.154 20.2837 159.666 20.2837C159.061 20.2837 158.592 20.0998 158.252 19.7321C157.91 19.3643 157.741 18.7456 157.741 17.8774V14.4087H156.735V13.2632H157.741V12.0024L159.239 11.55V13.2617H160.923L160.925 14.4087Z" fill="white"/>
<path id="Vector_24" d="M169.021 20.1422H167.49V16.2314C167.49 14.9983 167.029 14.3811 166.105 14.3811C165.396 14.3811 164.912 14.7386 164.646 15.4536C164.601 15.6039 164.574 15.7878 164.574 16.0038V20.1407H163.047V10.1069H164.574V14.2527H164.604C165.085 13.4982 165.775 13.1217 166.67 13.1217C167.303 13.1217 167.827 13.329 168.243 13.7448C168.761 14.2629 169.021 15.0334 169.021 16.0519V20.1422Z" fill="white"/>
<path id="Vector_25" d="M177.372 16.3774C177.372 16.6517 177.352 16.8823 177.315 17.0705H172.729C172.749 17.7505 172.968 18.2686 173.393 18.6275C173.781 18.9486 174.281 19.1091 174.894 19.1091C175.573 19.1091 176.192 19.0011 176.749 18.7837L176.988 19.846C176.336 20.1291 175.568 20.2706 174.68 20.2706C173.614 20.2706 172.775 19.9569 172.168 19.3294C171.558 18.702 171.256 17.86 171.256 16.8035C171.256 15.7659 171.538 14.9021 172.106 14.2133C172.698 13.4778 173.499 13.1101 174.51 13.1101C175.5 13.1101 176.251 13.4778 176.759 14.2133C177.169 14.797 177.372 15.5193 177.372 16.3774ZM175.913 15.9819C175.924 15.5281 175.824 15.137 175.617 14.8072C175.351 14.3826 174.947 14.1695 174.4 14.1695C173.901 14.1695 173.493 14.3767 173.183 14.7926C172.929 15.1239 172.778 15.5193 172.729 15.9819H175.913Z" fill="white"/>
</g>
</g>
</g>
</g>
<defs>
<clipPath id="clip0_1_1049">
<rect width="196.999" height="58.37" fill="white" transform="translate(0.500732 0.540039)"/>
</clipPath>
</defs>
</svg>
